<svg id="svg" version="1.1" xmlns="http://www.w3.org/2000/svg" xmlns:xlink="http://www.w3.org/1999/xlink" width="400" height="83.7568058076225" viewBox="0, 0, 400,83.7568058076225"><g id="svgg"><path id="path0" d="M89.417 12.497 C 87.281 12.726,82.819 13.680,82.417 13.993 C 82.325 14.065,81.950 14.218,81.583 14.335 C 68.283 18.553,65.256 34.753,76.274 42.750 C 77.408 43.573,79.189 44.546,81.460 45.582 C 84.809 47.111,84.487 46.975,88.500 48.567 C 93.795 50.669,95.211 51.449,97.151 53.333 C 100.906 56.981,100.353 63.072,96.038 65.601 C 92.449 67.704,85.021 68.054,79.220 66.394 C 75.926 65.451,73.647 64.394,70.833 62.508 C 70.329 62.170,69.823 61.838,69.708 61.770 C 69.543 61.673,69.500 62.745,69.500 66.911 L 69.500 72.175 69.958 72.346 C 70.210 72.440,70.714 72.671,71.078 72.858 C 75.127 74.946,82.782 76.071,89.167 75.515 C 92.308 75.242,96.373 74.395,97.583 73.763 C 97.858 73.620,98.158 73.502,98.249 73.501 C 98.545 73.499,101.732 71.843,102.417 71.336 C 102.783 71.064,103.346 70.661,103.667 70.441 C 104.626 69.783,106.348 67.870,107.374 66.325 C 110.528 61.574,110.132 51.714,106.672 48.833 C 106.617 48.788,106.413 48.543,106.219 48.290 C 105.818 47.767,103.021 45.333,102.821 45.333 C 102.749 45.333,102.591 45.237,102.470 45.119 C 102.102 44.762,99.674 43.403,98.083 42.664 C 97.258 42.280,96.278 41.824,95.906 41.650 C 95.533 41.476,95.176 41.333,95.112 41.333 C 95.049 41.333,94.678 41.189,94.290 41.012 C 93.901 40.835,92.121 40.112,90.333 39.406 C 82.503 36.310,80.211 34.372,79.672 30.391 C 78.632 22.696,87.597 18.560,98.917 21.512 C 101.237 22.117,105.421 23.831,105.833 24.346 C 105.934 24.471,106.606 24.833,106.739 24.833 C 106.791 24.833,106.833 22.627,106.833 19.930 L 106.833 15.028 106.125 14.768 C 105.735 14.625,104.894 14.316,104.256 14.081 C 100.765 12.799,93.668 12.041,89.417 12.497 M148.083 12.512 C 147.167 12.585,146.042 12.725,145.583 12.823 C 141.539 13.693,140.729 13.882,140.583 13.994 C 140.492 14.065,139.898 14.292,139.265 14.500 C 132.160 16.832,124.998 24.269,122.493 31.917 C 122.283 32.558,122.055 33.158,121.987 33.250 C 120.848 34.777,119.946 46.728,120.653 50.917 C 121.091 53.514,121.666 56.013,121.995 56.750 C 122.077 56.933,122.231 57.370,122.338 57.720 C 123.269 60.756,125.940 64.908,128.793 67.750 C 131.148 70.097,132.795 71.310,135.417 72.630 C 141.281 75.582,151.744 76.629,157.417 74.832 C 157.692 74.745,158.554 74.491,159.333 74.267 C 161.192 73.735,161.933 73.454,163.653 72.632 C 165.872 71.573,165.667 72.170,165.667 66.778 L 165.667 62.109 165.292 62.447 C 164.821 62.872,162.893 64.167,162.731 64.167 C 162.664 64.167,162.491 64.271,162.346 64.399 C 160.639 65.903,154.782 67.403,150.667 67.388 C 146.510 67.374,140.649 65.841,139.667 64.512 C 139.621 64.450,139.286 64.218,138.923 63.997 C 138.198 63.557,138.159 63.523,136.680 62.100 C 129.713 55.394,128.171 41.471,133.294 31.528 C 134.828 28.552,137.387 25.636,139.908 23.992 C 140.463 23.631,140.992 23.278,141.083 23.208 C 144.300 20.759,152.160 19.921,157.667 21.441 C 159.850 22.043,163.911 23.802,164.333 24.328 C 164.470 24.498,165.673 25.167,165.843 25.167 C 165.938 25.167,166.000 23.228,166.000 20.277 L 166.000 15.387 165.125 14.966 C 160.906 12.934,154.466 12.006,148.083 12.512 M198.417 12.512 C 197.500 12.585,196.375 12.722,195.917 12.818 C 195.458 12.914,194.120 13.186,192.943 13.421 C 191.765 13.657,190.678 13.919,190.526 14.004 C 190.374 14.088,189.762 14.303,189.167 14.481 C 187.794 14.892,183.852 16.643,183.500 16.999 C 183.454 17.045,183.042 17.285,182.583 17.532 L 181.750 17.981 181.706 22.991 C 181.682 25.748,181.727 28.000,181.807 28.000 C 181.886 28.000,182.135 27.831,182.360 27.625 C 184.295 25.848,188.616 23.302,191.083 22.485 C 191.450 22.363,191.825 22.213,191.917 22.151 C 192.206 21.956,196.196 21.011,197.492 20.831 C 200.088 20.470,204.834 20.660,205.917 21.168 C 206.100 21.254,206.632 21.470,207.099 21.649 C 211.171 23.209,214.000 28.732,214.000 35.119 L 214.000 35.923 211.208 36.299 C 209.673 36.505,206.879 36.890,205.000 37.153 C 203.121 37.417,200.121 37.828,198.333 38.066 C 196.546 38.305,194.783 38.573,194.417 38.662 C 194.050 38.751,193.112 38.945,192.333 39.094 C 184.139 40.660,177.999 45.837,176.529 52.417 C 174.739 60.435,176.517 67.106,181.617 71.500 C 182.353 72.134,183.133 72.667,183.327 72.667 C 183.422 72.667,183.500 72.728,183.500 72.803 C 183.500 73.264,188.195 74.985,190.500 75.368 C 192.196 75.650,197.903 75.641,199.500 75.354 C 204.527 74.449,209.699 71.112,212.316 67.083 C 212.554 66.717,212.841 66.319,212.954 66.201 C 213.066 66.082,213.281 65.725,213.432 65.409 C 213.937 64.343,214.000 64.802,214.000 69.583 L 214.000 74.333 218.840 74.333 L 223.679 74.333 223.617 52.208 C 223.549 28.089,223.607 29.565,222.587 25.833 C 220.812 19.341,216.312 14.785,210.250 13.345 C 209.425 13.149,208.450 12.916,208.083 12.827 C 206.249 12.381,201.871 12.238,198.417 12.512 M258.167 12.511 C 256.001 12.712,252.079 13.628,250.167 14.378 C 241.894 17.622,237.672 23.925,238.488 31.809 C 238.982 36.578,240.600 39.355,244.750 42.555 C 245.950 43.481,252.036 46.667,252.604 46.667 C 252.650 46.667,253.077 46.844,253.552 47.060 C 254.028 47.277,254.604 47.510,254.833 47.579 C 255.063 47.648,255.475 47.805,255.750 47.929 C 256.259 48.158,258.115 48.897,259.917 49.588 C 264.726 51.433,268.023 54.694,268.311 57.891 C 268.887 64.281,264.879 67.352,255.917 67.390 C 250.368 67.414,244.563 65.855,240.848 63.345 C 240.611 63.185,239.955 62.742,239.390 62.360 C 238.826 61.979,238.319 61.667,238.265 61.667 C 238.211 61.667,238.167 64.014,238.167 66.882 L 238.167 72.098 239.292 72.627 C 246.253 75.899,255.929 76.590,264.333 74.417 C 265.296 74.168,266.158 73.910,266.250 73.844 C 266.342 73.778,266.792 73.587,267.250 73.419 C 271.807 71.748,276.319 67.406,277.508 63.545 C 277.699 62.924,277.924 62.247,278.008 62.040 C 278.965 59.683,278.292 53.537,276.781 50.845 C 275.726 48.965,273.203 46.223,271.888 45.527 C 271.689 45.422,271.426 45.236,271.305 45.115 C 270.896 44.707,268.284 43.323,265.438 42.005 C 264.330 41.492,258.581 39.167,258.421 39.167 C 258.377 39.167,257.850 38.942,257.250 38.667 C 256.650 38.392,256.104 38.166,256.037 38.166 C 255.818 38.165,253.435 36.910,252.435 36.270 C 246.944 32.753,246.950 25.636,252.447 22.439 C 257.542 19.476,266.841 20.132,273.869 23.952 C 274.761 24.437,275.530 24.833,275.579 24.833 C 275.627 24.833,275.667 22.628,275.667 19.934 L 275.667 15.034 274.375 14.580 C 273.665 14.331,272.858 14.030,272.583 13.912 C 270.042 12.817,262.619 12.096,258.167 12.511 M309.500 12.511 C 308.076 12.643,307.744 12.704,304.833 13.358 C 296.452 15.241,290.576 21.003,289.801 28.099 C 289.004 35.395,292.203 40.867,299.417 44.551 C 300.707 45.210,303.464 46.500,303.582 46.500 C 303.623 46.500,304.053 46.678,304.537 46.895 C 305.021 47.112,305.792 47.424,306.250 47.590 C 306.708 47.755,307.158 47.943,307.250 48.007 C 307.342 48.071,307.717 48.219,308.083 48.336 C 308.450 48.453,309.125 48.713,309.583 48.915 C 310.042 49.116,310.679 49.379,311.000 49.498 C 317.691 51.986,320.865 56.525,319.401 61.511 C 317.471 68.081,305.158 69.575,294.458 64.539 C 293.381 64.032,292.500 63.553,292.500 63.475 C 292.500 63.397,292.415 63.333,292.312 63.333 C 292.208 63.333,291.573 62.958,290.901 62.500 C 290.228 62.042,289.638 61.667,289.589 61.667 C 289.464 61.667,289.478 67.707,289.609 70.149 L 289.719 72.185 290.761 72.672 C 303.657 78.701,322.567 75.361,327.594 66.167 C 327.769 65.846,327.997 65.471,328.100 65.333 C 328.996 64.135,329.661 61.010,329.661 58.000 C 329.661 54.081,328.975 51.832,326.922 49.014 C 326.098 47.884,323.949 45.980,322.330 44.945 C 320.708 43.909,320.719 43.914,318.833 42.992 C 317.871 42.521,316.821 42.004,316.500 41.843 C 316.179 41.683,315.617 41.455,315.250 41.337 C 314.883 41.220,314.396 41.024,314.167 40.902 C 313.738 40.674,309.911 39.167,309.761 39.167 C 309.714 39.167,309.267 38.979,308.766 38.750 C 308.265 38.521,307.806 38.333,307.747 38.333 C 307.524 38.333,304.709 36.864,303.752 36.248 C 302.696 35.568,300.833 33.759,300.833 33.413 C 300.833 33.300,300.730 33.122,300.604 33.018 C 300.479 32.913,300.257 32.398,300.113 31.872 C 298.006 24.216,304.808 19.402,315.714 20.832 C 317.136 21.018,320.959 21.936,321.250 22.161 C 321.342 22.232,321.717 22.384,322.083 22.499 C 322.951 22.771,325.429 23.993,326.263 24.560 L 326.917 25.004 326.961 20.136 C 327.012 14.497,327.215 15.080,324.917 14.257 C 320.673 12.737,314.533 12.042,309.500 12.511 M367.500 12.499 C 363.607 12.853,358.842 14.157,355.924 15.666 C 351.083 18.169,347.907 21.215,344.541 26.584 C 344.426 26.767,344.261 27.083,344.173 27.286 C 344.085 27.489,343.761 28.201,343.454 28.869 C 343.147 29.537,342.793 30.421,342.668 30.833 C 342.543 31.246,342.383 31.661,342.313 31.755 C 341.157 33.322,340.157 43.634,340.651 48.891 C 341.496 57.872,345.811 66.143,351.750 70.164 C 352.208 70.474,352.621 70.774,352.667 70.830 C 353.729 72.127,359.545 74.423,363.750 75.205 C 368.573 76.102,379.528 75.263,381.410 73.853 C 381.505 73.781,382.047 73.558,382.613 73.357 C 386.541 71.960,391.183 68.275,394.293 64.083 C 397.132 60.257,399.231 54.333,399.839 48.428 C 400.062 46.267,399.959 38.754,399.686 37.250 C 398.975 33.334,398.784 32.456,398.492 31.750 C 398.416 31.567,398.230 30.967,398.078 30.417 C 397.926 29.867,397.653 29.079,397.471 28.667 C 396.953 27.494,395.471 24.593,395.342 24.500 C 395.278 24.454,395.184 24.304,395.133 24.167 C 395.040 23.915,393.520 21.821,393.318 21.667 C 393.258 21.621,392.844 21.158,392.396 20.639 C 390.692 18.659,387.821 16.531,385.000 15.156 C 380.539 12.981,373.668 11.938,367.500 12.499 M375.854 21.160 C 380.732 22.417,384.486 25.157,386.593 29.000 C 386.769 29.321,387.001 29.696,387.108 29.833 C 387.456 30.280,388.624 33.415,388.915 34.682 C 389.071 35.361,389.264 36.104,389.344 36.333 C 389.954 38.074,390.145 47.690,389.624 50.417 C 389.286 52.183,388.525 55.182,388.357 55.405 C 388.284 55.503,388.088 55.958,387.923 56.417 C 387.578 57.368,386.383 59.640,386.052 59.971 C 385.931 60.093,385.745 60.356,385.639 60.555 C 384.544 62.613,380.842 65.316,377.667 66.376 C 368.583 69.407,358.251 66.068,354.075 58.750 C 353.813 58.292,353.546 57.878,353.480 57.832 C 353.414 57.785,353.198 57.335,353.000 56.832 C 352.801 56.329,352.583 55.842,352.515 55.750 C 351.300 54.116,350.136 46.353,350.490 42.250 C 351.555 29.901,356.292 23.436,366.083 20.970 C 368.099 20.463,373.559 20.569,375.854 21.160 M214.000 47.335 C 214.000 51.014,213.813 52.934,213.231 55.250 C 212.064 59.892,208.103 64.539,203.917 66.177 C 203.367 66.392,202.841 66.622,202.748 66.688 C 201.907 67.287,196.461 67.603,194.250 67.182 C 189.019 66.186,185.911 62.445,185.930 57.167 C 185.949 51.705,187.750 49.165,192.952 47.262 C 195.779 46.228,197.628 45.901,208.976 44.425 C 211.391 44.111,213.410 43.812,213.462 43.761 C 213.934 43.288,214.000 43.725,214.000 47.335 " stroke="none" fill="#fcfcfc" fill-rule="evenodd"></path><path id="path1" d="M28.083 0.116 C 22.810 0.393,14.711 1.693,13.178 2.507 C 13.034 2.583,12.358 2.851,11.674 3.101 C 10.514 3.525,7.046 5.344,6.842 5.635 C 6.791 5.707,6.513 5.931,6.223 6.134 C -0.432 10.779,-2.062 22.743,2.903 30.500 C 3.167 30.912,3.432 31.287,3.491 31.333 C 3.551 31.379,3.782 31.679,4.006 32.000 C 4.817 33.164,7.031 35.217,8.949 36.583 C 10.091 37.397,13.579 39.333,13.903 39.333 C 13.958 39.333,14.322 39.480,14.710 39.659 C 15.099 39.838,15.782 40.126,16.228 40.298 L 17.040 40.610 15.061 41.081 C 6.896 43.024,1.999 47.857,0.892 55.065 C 0.028 60.694,1.763 68.162,4.739 71.623 C 4.837 71.736,5.288 72.299,5.742 72.873 C 6.195 73.447,7.041 74.329,7.620 74.833 C 9.037 76.066,9.003 76.039,9.667 76.497 C 9.987 76.719,10.287 76.944,10.333 76.997 C 10.850 77.594,15.831 80.106,17.583 80.653 C 18.225 80.854,18.883 81.090,19.045 81.179 C 19.557 81.459,22.663 82.189,25.083 82.598 C 26.367 82.815,27.829 83.067,28.333 83.157 C 31.319 83.691,42.011 83.803,46.500 83.346 C 52.210 82.766,56.372 82.133,62.750 80.873 L 64.250 80.577 64.526 76.580 C 64.836 72.100,65.445 64.570,65.652 62.667 C 65.799 61.309,65.782 61.197,65.462 61.461 C 65.100 61.760,59.223 63.445,56.250 64.102 C 53.153 64.786,52.167 64.962,49.833 65.242 C 48.596 65.391,47.081 65.585,46.468 65.673 C 36.754 67.069,28.406 63.449,27.471 57.434 C 26.261 49.653,34.844 46.675,53.390 48.442 L 54.530 48.551 54.430 47.651 C 54.318 46.645,53.900 41.107,53.751 38.667 C 53.698 37.796,53.583 36.371,53.495 35.500 C 53.407 34.629,53.289 33.104,53.234 32.110 C 53.136 30.360,53.121 30.307,52.775 30.412 C 49.558 31.388,38.596 31.297,34.609 30.261 C 28.557 28.688,26.316 23.174,30.218 19.458 C 30.676 19.023,31.111 18.667,31.187 18.667 C 31.262 18.667,31.720 18.481,32.204 18.254 C 35.230 16.832,45.710 16.606,52.583 17.812 C 53.042 17.893,54.804 18.194,56.500 18.481 C 58.196 18.768,59.762 19.080,59.980 19.175 C 60.665 19.471,60.811 20.358,58.162 8.083 C 57.865 6.708,57.460 4.687,57.263 3.592 C 56.831 1.202,57.438 1.490,51.833 1.010 C 49.587 0.817,47.038 0.586,46.167 0.495 C 42.363 0.100,32.372 -0.110,28.083 0.116 " stroke="none" fill="#fc6c04" fill-rule="evenodd"></path><path id="path2" d="" stroke="none" fill="#fc100bc" fill-rule="evenodd"></path><path id="path3" d="" stroke="none" fill="#fc100bc" fill-rule="evenodd"></path><path id="path4" d="" stroke="none" fill="#fc100bc" fill-rule="evenodd"></path></g></svg>